<?xml version="1.0" encoding="UTF-8" standalone="no"?>
<!DOCTYPE svg PUBLIC "-//W3C//DTD SVG 1.1//EN" "http://www.w3.org/Graphics/SVG/1.1/DTD/svg11.dtd">
<svg width="100%" height="100%" viewBox="0 0 1182 1182" version="1.1" xmlns="http://www.w3.org/2000/svg" xmlns:xlink="http://www.w3.org/1999/xlink" xml:space="preserve" xmlns:serif="http://www.serif.com/" style="fill-rule:evenodd;clip-rule:evenodd;stroke-linejoin:round;stroke-miterlimit:2;">
    <g transform="matrix(1,0,0,1,-1299.21,-2636.33)">
        <g id="APP-ICON" serif:id="APP ICON" transform="matrix(1,0,0,1,1299.21,2636.33)">
            <rect x="0" y="0" width="1181.1" height="1181.1" style="fill:none;"/>
            <g transform="matrix(0.6875,0,0,0.6875,84.1167,-708.689)">
                <path d="M891.056,2336.39C842.657,2353.14 790.699,2362.24 736.632,2362.24C475.885,2362.24 264.191,2150.55 264.191,1889.8C264.191,1629.06 475.885,1417.36 736.632,1417.36C997.379,1417.36 1209.07,1629.06 1209.07,1889.8C1209.07,2020.18 1156.15,2138.29 1070.63,2223.8L1209.07,2362.24L916.911,2362.24L891.056,2336.39ZM475.577,1940.29C499.188,2062.91 607.164,2155.66 736.632,2155.66C866.1,2155.66 974.076,2062.91 997.687,1940.29L1042.58,1940.29C1018.47,2087.51 890.671,2199.84 736.632,2199.84C654.404,2199.84 575.545,2167.18 517.401,2109.03L444.324,2182.11C521.849,2259.64 626.995,2303.19 736.632,2303.19C962.152,2303.19 1145.49,2122.6 1149.93,1898.14C1149.99,1897.24 1150.02,1896.32 1150.02,1895.4L1150.02,1839.32L997.687,1839.32C974.076,1716.7 866.1,1623.95 736.632,1623.95C607.164,1623.95 499.188,1716.7 475.577,1839.32L430.682,1839.32C454.791,1692.1 582.593,1579.76 736.632,1579.76C818.86,1579.76 897.719,1612.43 955.863,1670.57L1028.94,1597.5C951.415,1519.97 846.269,1476.42 736.632,1476.42C511.112,1476.42 327.771,1657.01 323.329,1881.46C323.274,1882.37 323.246,1883.28 323.246,1884.2L323.246,1940.29L475.577,1940.29Z" style="fill:rgb(245,250,255);"/>
            </g>
        </g>
    </g>
</svg>
